<svg width="960" height="194" viewBox="0 0 960 194" fill="none" xmlns="http://www.w3.org/2000/svg">
<path d="M426.2 124L448.8 134.573L454.4 158.338L438.8 177.447H413.6L398 158.338L403.6 134.573L426.2 124Z" stroke="#3CFAA4" stroke-width="2"/>
<path d="M56.6 42L67.5 47.141L70.2 58.587L62.7 67.802H50.5L43 58.587L45.7 47.141L56.6 42Z" stroke="#3CFAA4" stroke-width="2"/>
<path d="M232 120.28L246.9 127.264L250.5 142.784L240.2 155.297H223.8L213.5 142.784L217.1 127.264L232 120.28Z" stroke="#3CFAA4" stroke-width="2"/>
<path d="M791 45.59L802.7 51.022L805.6 63.341L797.5 73.235H784.5L776.4 63.341L779.3 51.022L791 45.59Z" stroke="#3CFAA4" stroke-width="2"/>
<path d="M597 41.71L611.1 48.306L614.5 63.05L604.8 74.884H589.2L579.5 63.05L582.9 48.306L597 41.71Z" stroke="#3CFAA4" stroke-width="2"/>
<path d="M907 97.97L928.1 107.864L933.3 129.98L918.7 147.731H895.3L880.7 129.98L885.9 107.864L907 97.97Z" stroke="#3CFAA4" stroke-width="2"/>
<path d="M277.3 8L298.4 17.894L303.6 40.01L289 57.761H265.6L251 40.01L256.2 17.894L277.3 8Z" stroke="#3CFAA4" stroke-width="2"/>
<path d="M533.3 11L553.6 20.506L558.6 41.846L544.6 58.918H522L508 41.846L513 20.506L533.3 11Z" stroke="#3CFAA4" stroke-width="2"/>
<path d="M137 151.32L152.6 158.595L156.5 175.085L145.7 188.18H128.3L117.5 175.085L121.4 158.595L137 151.32Z" stroke="#3CFAA4" stroke-width="2"/>
<path d="M875 47.53L889.9 54.514L893.5 70.034L883.2 82.547H866.8L856.5 70.034L860.1 54.514L875 47.53Z" stroke="#3CFAA4" stroke-width="2"/>
</svg>
