<svg width="63" height="63" viewBox="0 0 63 63" fill="none" xmlns="http://www.w3.org/2000/svg">
<path d="M23.625 49.875C10.5 53.8125 10.5 43.3125 5.25 42M42 57.75V47.5913C42.0985 46.3396 41.9294 45.0812 41.5039 43.9C41.0785 42.7187 40.4064 41.6415 39.5325 40.74C47.775 39.8213 56.4375 36.6975 56.4375 22.365C56.4368 18.7001 55.0271 15.1757 52.5 12.5213C53.6966 9.31483 53.612 5.77067 52.2637 2.625C52.2637 2.625 49.1663 1.70625 42 6.51C35.9835 4.87941 29.6415 4.87941 23.625 6.51C16.4587 1.70625 13.3613 2.625 13.3613 2.625C12.013 5.77067 11.9284 9.31483 13.125 12.5213C10.5791 15.1953 9.16787 18.7516 9.1875 22.4438C9.1875 36.6713 17.85 39.795 26.0925 40.8188C25.2289 41.7112 24.5628 42.7754 24.1377 43.9423C23.7126 45.1091 23.5379 46.3524 23.625 47.5913V57.75" stroke="#001220" stroke-width="2" stroke-linecap="round" stroke-linejoin="round"/>
</svg>
